<svg width="17" height="19" viewBox="0 0 17 19" fill="none" xmlns="http://www.w3.org/2000/svg">
<path d="M15.8556 12.46C15.789 12.3798 15.7236 12.2996 15.6595 12.2222C14.7772 11.1551 14.2434 10.511 14.2434 7.48993C14.2434 5.92587 13.8692 4.64253 13.1317 3.68003C12.5879 2.96899 11.8528 2.42959 10.8839 2.03095C10.8714 2.02402 10.8603 2.01492 10.851 2.00408C10.5025 0.83705 9.54879 0.0554199 8.4732 0.0554199C7.3976 0.0554199 6.44433 0.83705 6.09582 2.00288C6.08652 2.01332 6.07554 2.02213 6.06334 2.02895C3.80226 2.95976 2.70341 4.7456 2.70341 7.48873C2.70341 10.511 2.17043 11.1551 1.28733 12.221C1.22316 12.2984 1.1578 12.377 1.09122 12.4588C0.919256 12.6662 0.810301 12.9185 0.777252 13.1859C0.744203 13.4533 0.788444 13.7245 0.904738 13.9676C1.15218 14.4889 1.67955 14.8126 2.28151 14.8126H14.6693C15.2684 14.8126 15.7922 14.4893 16.0405 13.9704C16.1572 13.7273 16.2019 13.4558 16.1691 13.1881C16.1364 12.9205 16.0276 12.6678 15.8556 12.46ZM8.4732 18.0221C9.05272 18.0216 9.6213 17.8643 10.1187 17.5668C10.616 17.2694 11.0236 16.8429 11.2981 16.3325C11.3111 16.308 11.3175 16.2807 11.3167 16.253C11.3159 16.2253 11.308 16.1984 11.2937 16.1747C11.2794 16.151 11.2592 16.1314 11.2351 16.1178C11.211 16.1042 11.1838 16.0971 11.1562 16.0971H5.79103C5.76333 16.097 5.73607 16.1041 5.71192 16.1176C5.68777 16.1312 5.66754 16.1508 5.6532 16.1745C5.63886 16.1982 5.63091 16.2252 5.63012 16.2529C5.62932 16.2806 5.63571 16.308 5.64866 16.3325C5.92319 16.8428 6.33069 17.2693 6.82797 17.5667C7.32524 17.8642 7.89374 18.0215 8.4732 18.0221Z" fill="white" fill-opacity="0.8"/>
</svg>
