<svg width="20" height="21" viewBox="0 0 20 21" fill="none" xmlns="http://www.w3.org/2000/svg">
<path d="M19 18V11.267C19 10.7245 18.8896 10.1876 18.6756 9.68904C18.4616 9.19049 18.1483 8.74069 17.755 8.36701L11.378 2.31001C11.0063 1.9569 10.5132 1.76001 10.0005 1.76001C9.48781 1.76001 8.9947 1.9569 8.623 2.31001L2.245 8.36701C1.85165 8.74069 1.53844 9.19049 1.3244 9.68904C1.11037 10.1876 0.999999 10.7245 1 11.267V18C1 18.5304 1.21071 19.0392 1.58579 19.4142C1.96086 19.7893 2.46957 20 3 20H17C17.5304 20 18.0391 19.7893 18.4142 19.4142C18.7893 19.0392 19 18.5304 19 18Z" stroke="white" stroke-opacity="0.8" stroke-width="2" stroke-linecap="round" stroke-linejoin="round"/>
</svg>
