<svg width="98" height="19" viewBox="0 0 98 19" fill="none" xmlns="http://www.w3.org/2000/svg">
<path d="M9 0.5L11.0206 6.71885H17.5595L12.2694 10.5623L14.2901 16.7812L9 12.9377L3.70993 16.7812L5.73056 10.5623L0.440492 6.71885H6.97937L9 0.5Z" fill="#E58E27"/>
<path d="M29 0.5L31.0206 6.71885H37.5595L32.2694 10.5623L34.2901 16.7812L29 12.9377L23.7099 16.7812L25.7306 10.5623L20.4405 6.71885H26.9794L29 0.5Z" fill="#E58E27"/>
<path d="M49 0.5L51.0206 6.71885H57.5595L52.2694 10.5623L54.2901 16.7812L49 12.9377L43.7099 16.7812L45.7306 10.5623L40.4405 6.71885H46.9794L49 0.5Z" fill="#E58E27"/>
<path d="M70.5449 6.87305L70.6572 7.21875H76.0215L71.9756 10.1582L71.6816 10.3711L71.7939 10.7168L73.3389 15.4717L69.2939 12.5332L69 12.3193L68.7061 12.5332L64.6602 15.4717L66.2061 10.7168L66.3184 10.3711L66.0244 10.1582L61.9785 7.21875H67.3428L67.4551 6.87305L69 2.11719L70.5449 6.87305Z" stroke="#E58E27"/>
<path d="M90.5449 6.87305L90.6572 7.21875H96.0215L91.9756 10.1582L91.6816 10.3711L91.7939 10.7168L93.3389 15.4717L89.2939 12.5332L89 12.3193L88.7061 12.5332L84.6602 15.4717L86.2061 10.7168L86.3184 10.3711L86.0244 10.1582L81.9785 7.21875H87.3428L87.4551 6.87305L89 2.11719L90.5449 6.87305Z" stroke="#E58E27"/>
</svg>
